<?xml version="1.0" encoding="iso-8859-1"?>
<!-- Generator: Adobe Illustrator 19.0.0, SVG Export Plug-In . SVG Version: 6.00 Build 0)  -->
<svg version="1.1" id="Layer_1" xmlns="http://www.w3.org/2000/svg" xmlns:xlink="http://www.w3.org/1999/xlink" x="0px" y="0px"
	 viewBox="0 0 512.001 512.001" style="enable-background:new 0 0 512.001 512.001;" xml:space="preserve">
<g>
	<g>
		<path d="M490.049,85.235l-0.446-0.445c-4.928-4.914-12.902-4.908-17.822,0.013l-59.74,59.741l-44.582-44.582L427.2,40.22
			c4.924-4.924,4.924-12.909,0-17.834l-0.446-0.446C397.5-7.313,349.9-7.314,320.646,21.94l-28.385,28.384
			c-23.075,23.075-26.937,58.718-10.744,85.643l-145.55,145.552c-26.925-16.196-62.568-12.333-85.643,10.744l-28.385,28.385
			C-7.312,349.9-7.312,397.499,21.952,426.766l0.446,0.445c4.928,4.914,12.902,4.908,17.822-0.013l59.74-59.741l44.582,44.582
			l-59.74,59.741c-4.924,4.924-4.924,12.909,0,17.834l0.446,0.446c14.628,14.626,33.841,21.94,53.054,21.94
			s38.428-7.314,53.054-21.94l28.384-28.384c23.161-23.161,26.675-59.233,9.899-86.582l145.457-145.457
			c27.348,16.776,63.42,13.264,86.582-9.899l28.385-28.385C519.313,162.101,519.313,114.502,490.049,85.235z M472.228,173.521
			l-28.385,28.385c-16.643,16.643-43.764,17.382-61.743,1.686c-4.996-4.36-12.52-4.107-17.209,0.583L204.176,364.89
			c-4.69,4.691-4.944,12.213-0.583,17.209c15.696,17.981,14.954,45.102-1.687,61.743l-28.384,28.384
			c-16.5,16.501-41.797,18.98-60.94,7.441l58.712-58.712c2.364-2.364,3.693-5.571,3.693-8.917s-1.329-6.552-3.693-8.917
			l-62.417-62.417c-2.366-2.364-5.572-3.693-8.917-3.693c-3.344,0-6.551,1.329-8.916,3.693l-58.711,58.712
			c-11.539-19.144-9.06-44.44,7.44-60.941l28.385-28.385c16.35-16.35,43.659-17.496,60.88-2.553
			c4.999,4.338,12.502,4.072,17.181-0.607l160.715-160.716c4.68-4.68,4.946-12.182,0.607-17.181
			c-14.943-17.219-13.797-44.529,2.554-60.88l28.384-28.384c16.501-16.501,41.796-18.98,60.94-7.441l-58.712,58.712
			c-2.364,2.364-3.693,5.571-3.693,8.917s1.329,6.552,3.693,8.917l62.417,62.417c2.366,2.364,5.572,3.693,8.917,3.693
			s6.551-1.329,8.917-3.693l58.711-58.712C491.208,131.726,488.728,157.02,472.228,173.521z"/>
	</g>
</g>
<g>
	<g>
		<path d="M335.358,176.642c-4.925-4.924-12.908-4.924-17.833,0L176.643,317.524c-4.924,4.924-4.924,12.909,0,17.834
			c2.463,2.463,5.69,3.693,8.917,3.693c3.227,0,6.454-1.231,8.916-3.693l140.882-140.882
			C340.282,189.552,340.282,181.568,335.358,176.642z"/>
	</g>
</g>
<g>
</g>
<g>
</g>
<g>
</g>
<g>
</g>
<g>
</g>
<g>
</g>
<g>
</g>
<g>
</g>
<g>
</g>
<g>
</g>
<g>
</g>
<g>
</g>
<g>
</g>
<g>
</g>
<g>
</g>
</svg>
